<?xml version="1.0" ?><svg style="enable-background:new 0 0 48 48;" version="1.1" viewBox="0 0 48 48" xml:space="preserve" xmlns="http://www.w3.org/2000/svg" xmlns:xlink="http://www.w3.org/1999/xlink"><g id="Icons"><g><path d="M30.6735,39.04815H17.3301c-1.081,0-1.9573-0.8763-1.9573-1.9572v-0.9205l8.463-0.9203    l8.795,0.9203v0.9205C32.6308,38.17185,31.7545,39.04815,30.6735,39.04815z" style="fill:#444444;"/><polygon points="15.3728,12.74995 24.2411,11.94505 32.6308,12.74995 32.6308,36.16995 15.3728,36.16995       " style="fill:#E9F5FF;"/><circle cx="24.00183" cy="37.56387" r="0.64535" style="fill:#FFFFFF;"/><g><g><path d="M20.1592,12.74995l-4.79,4.43v1.1l6-5.53H20.1592z M23.1892,12.74995l-7.82,7.2v2.9l10.96-10.1      H23.1892z" style="fill:#E9F5FF;"/></g><g><g><g><g style="opacity:0.5;"><polygon points="21.3692,12.74995 15.3692,18.27995 15.3692,17.17995 20.1592,12.74995        " style="fill:#FFFFFF;"/><polygon points="26.3292,12.74995 15.3692,22.84995 15.3692,19.94995 23.1892,12.74995        " style="fill:#FFFFFF;"/></g></g></g></g></g><g><path d="M30.1678,8.95185H17.8359c-1.3603,0-2.4631,1.1155-2.4631,2.4916v1.3157h17.258v-1.3157     C32.6308,10.06735,31.5281,8.95185,30.1678,8.95185z" style="fill:#444444;"/><g><g><ellipse cx="26.88467" cy="10.82557" rx="0.36535" ry="0.32865" style="fill:#FFFFFF;"/></g><g><path d="M24.4768,11.17575h-3.7232c-0.1933,0-0.3501-0.1568-0.3501-0.3502s0.1568-0.3501,0.3501-0.3501       h3.7232c0.1933,0,0.3501,0.1567,0.3501,0.3501S24.6701,11.17575,24.4768,11.17575z" style="fill:#FFFFFF;"/></g></g></g><g id="Icons_5_"><path d="M22.9272,29.51845h1.9356l0.0457-4.1086h1.5978l0.2739-1.9448l-1.8809-0.0365l0.0092-1.5248     c0,0-0.0092-0.6299,0.8126-0.6391c0.8217-0.0091,1.0591,0,1.0591,0l0.0475-1.8534c-1.2161,0.0085-2.744-0.1914-3.5121,0.9924     c-0.2984,0.4599-0.4249,1.0481-0.4249,1.5915v1.4334h-1.6709l-0.0456,1.9813l1.6982,0.0091L22.9272,29.51845z" style="fill:#5F83CF;"/></g></g></g></svg>